<svg width="100%" height="100%" viewBox="0 0 21 21" fill="none" xmlns="http://www.w3.org/2000/svg">
  <path fill-rule="evenodd" clip-rule="evenodd" d="M8.83333 1.335L1.33333 6.51C0.708328 6.947 0.333328 7.626 0.333328 8.35V18.7C0.333328 19.965 1.45833 21 2.83333 21H17.8333C19.2083 21 20.3333 19.965 20.3333 18.7V8.35C20.3333 7.626 19.9583 6.947 19.3333 6.51L11.8333 1.335C11.3898 1.03707 10.8676 0.877956 10.3333 0.877956C9.79903 0.877956 9.27684 1.03707 8.83333 1.335ZM5.64933 13.366C5.56642 13.2895 5.46913 13.2304 5.36312 13.1919C5.25711 13.1534 5.1445 13.1364 5.03186 13.1419C4.91921 13.1473 4.80878 13.1752 4.707 13.2237C4.60522 13.2723 4.51412 13.3407 4.43902 13.4248C4.36391 13.5089 4.3063 13.6072 4.26953 13.7138C4.23277 13.8204 4.21759 13.9333 4.22488 14.0458C4.23217 14.1583 4.26178 14.2683 4.31199 14.3693C4.3622 14.4703 4.432 14.5603 4.51733 14.634C6.11632 16.065 8.18754 16.8548 10.3333 16.852C12.5663 16.852 14.6053 16.012 16.1493 14.634C16.2347 14.5603 16.3045 14.4703 16.3547 14.3693C16.4049 14.2683 16.4345 14.1583 16.4418 14.0458C16.4491 13.9333 16.4339 13.8204 16.3971 13.7138C16.3604 13.6072 16.3027 13.5089 16.2276 13.4248C16.1525 13.3407 16.0614 13.2723 15.9597 13.2237C15.8579 13.1752 15.7474 13.1473 15.6348 13.1419C15.5222 13.1364 15.4095 13.1534 15.3035 13.1919C15.1975 13.2304 15.1002 13.2895 15.0173 13.366C13.7298 14.5187 12.0615 15.1548 10.3333 15.152C8.53333 15.152 6.89333 14.477 5.64933 13.366Z" fill="currentColor"/>
</svg>
